<?xml version="1.0" encoding="UTF-8"?>
<svg width="787px" height="135px" viewBox="0 0 576 135" version="1.1" xmlns="http://www.w3.org/2000/svg" xmlns:xlink="http://www.w3.org/1999/xlink">
    <defs>
        <path d="M14.5,49.5 C14.8,48.7 15.1,47.8 15.3,46.9 L15.3,46.9 C17.1,41 14.2,38 12.4,35 L12.4,35 C10.4,31.6 15.4,27.7 14.8,33.8 L14.8,33.8 C14.1,40.7 18.2,42.7 18.2,42.7 L18.2,42.7 C13.3,36.5 17.6,33.6 17,29.5 L17,29.5 C16.7,27.3 14.8,27.1 13.7,26.4 L13.7,26.4 C13.4,26.2 13.1,25.8 13.1,25.2 L13.1,25.2 C13.1,24.4 13.9,23.3 14,23.2 L14,23.2 C14.1,23.1 14.6,22.7 14.7,23.5 L14.7,23.5 C14.8,24.2 15,24.4 15,24.4 L15,24.4 C15.1,24.5 15.2,24.6 15.3,24.7 L15.3,24.7 C17,25.7 19,26.7 18.1,32.3 L18.1,32.3 C17.1,38.7 19.7,39.3 19.7,39.3 L19.7,39.3 C19.7,39.3 18.1,37.2 19,33.7 L19,33.7 C20,30.2 19.7,27.2 17.8,24.6 L17.8,24.6 C15.8,22 22.3,18.7 20.7,24.7 L20.7,24.7 C19,31.1 21.6,31 21.6,31 L21.6,31 C21.6,31 19.7,30.6 21.6,25.8 L21.6,25.8 C24.5,18.3 18.3,18.9 19,16.3 L19,16.3 C19.6,14 22,15.7 22.4,17.9 L22.4,17.9 C22.8,12.3 17.7,15.2 19.6,9.7 L19.6,9.7 C22,2.7 19.1,0.1 19.1,0.1 L19.1,0.1 C20.5,3.9 18.8,9.5 17.2,11.5 L17.2,11.5 C16.2,12.8 14.7,14.6 12.6,13.7 L12.6,13.7 C8.2,11.8 12.6,8.6 12.6,8.6 L10.3,6 C8.9,7.9 8.4,9.6 9.3,13.7 L9.3,13.7 C9.9,16.7 5.7,15.1 4.1,13.9 L4.1,13.9 C0.4,11.2 0.7,5.5 0.7,5.5 L0.7,5.5 C0.1,7.9 0.6,13.1 4,16 L4,16 C6.2,17.9 5.2,20.4 4.2,23 L4.2,23 C3.4,25 2.5,27.1 3.3,28.9 L3.3,28.9 C3.5,25.3 5.3,22.8 6.4,22.4 L6.4,22.4 C7.2,22.1 7.7,22.9 6.9,25.2 L6.9,25.2 C4.2,33.2 9.6,34.4 9.6,34.4 L9.6,34.4 C8.1,33.4 7.1,31.9 7.7,28.3 L7.7,28.3 C8.4,25.2 9,24.1 9.5,24 L9.5,24 C10.9,23.9 9.3,27.6 9.3,27.6 L9.3,27.6 C9.3,27.6 11.8,25.2 10.4,22 L10.4,22 C10,21 10.2,20 10.8,19.8 L10.8,19.8 C11.4,19.6 12,20.1 12.2,20.9 L12.2,20.9 C12.5,22.4 11.6,25.1 10.3,26.8 L10.3,26.8 C7.4,30.4 9,32.1 9.5,32.4 L9.5,32.4 C10.4,33.6 10.3,35.2 10,36.5 L10,36.5 C7.6,42.1 11.9,43.5 11.9,43.5 L11.9,43.5 C9.1,42.1 9.4,36.4 12.1,39.2 L12.1,39.2 C14,41.2 13.5,45 13,47 L13,47 C13,47.1 12.9,47.2 12.9,47.4 L12.9,47.4 C8.9,58.7 15.4,60.3 15.4,60.3 L15.4,60.3 C11.8,57.5 13,54.1 14.5,49.5" id="path-1"></path>
        <polygon id="path-3" points="51 0 54.4 66.6 4.1 76.4 0.8 9.8"></polygon>
        <linearGradient x1="50.6794776%" y1="-8.61256545%" x2="56.0686567%" y2="65.8921466%" id="linearGradient-5">
            <stop stop-color="#FFFF00" offset="0%"></stop>
            <stop stop-color="#F15A24" offset="100%"></stop>
        </linearGradient>
        <path d="M18.9,14.2 C19.5,11.9 22.2,13.4 22.4,14.4 L22.4,14.4 C22.5,12.8 20.3,12.7 19.3,11 L19.3,11 C18.2,9.2 21.7,4.3 20.1,0.1 L20.1,0.1 C20.8,3.2 18.6,12.2 13.9,12.5 L13.9,12.5 C9.9,12.8 9.7,7 9.9,5.5 L9.9,5.5 C9.3,6.2 9.5,7.8 9.7,9.3 L9.7,9.3 C10,11.4 10.2,13.6 8.5,14 L8.5,14 C6.7,14.3 2.4,12.5 0.9,7.7 L0.9,7.7 C1.2,13.6 7.8,14 5.3,18.4 L5.3,18.4 C5,19 4.4,20.7 4.2,21.9 L4.2,21.9 C4.2,21.9 6.5,15.7 7.3,18.8 L7.3,18.8 C8.1,21.9 14.5,11.4 13.2,18.2 L13.2,18.2 C13.6,17.5 15.6,14.2 15.6,17.3 L15.6,17.3 C15.6,20 16.9,21.2 16.9,21.2 L16.9,21.2 C17,16.5 20.3,17.7 21.1,18.4 L21.1,18.4 C21.1,17.4 18.1,17 18.9,14.2" id="path-6"></path>
        <polygon id="path-8" points="29.5 7.1 21.6 31.3 0.1 25 8 0.9"></polygon>
        <linearGradient x1="57.670068%" y1="27.2088816%" x2="28.857483%" y2="112.441447%" id="linearGradient-10">
            <stop stop-color="#FFFF00" offset="0%"></stop>
            <stop stop-color="#F8AB12" offset="46.95%"></stop>
            <stop stop-color="#F3711F" offset="82.85%"></stop>
            <stop stop-color="#F15A24" offset="100%"></stop>
        </linearGradient>
        <polygon id="path-11" points="0 255.236962 254.875543 255.236962 254.875543 0 0 0"></polygon>
    </defs>
    <g id="Page-1" stroke="none" stroke-width="1" fill="none" fill-rule="evenodd">
        <g id="68747470733a2f2f63646e2e7261776769742e636f6d2f426171656e642f616e67756c6172322d737461727465722f6d61737465722f7372632f6173736574732f416e67756c61722b426171656e642e737667" transform="translate(269.000000, 9.000000)">
            <g id="Group" transform="translate(155.000000, 65.000000)">
                <g id="Clipped">
                    <mask id="mask-2" fill="white">
                        <use xlink:href="#path-1"></use>
                    </mask>
                    <g id="SVGID_1_"></g>
                    <g mask="url(#mask-2)">
                        <g transform="translate(-18.000000, -12.000000)">
                            <mask id="mask-4" fill="white">
                                <use xlink:href="#path-3"></use>
                            </mask>
                            <g id="SVGID_3_" stroke="none" fill="none"></g>
                            <polygon id="Shape" stroke="none" fill="url(#linearGradient-5)" fill-rule="evenodd" mask="url(#mask-4)" points="51 0 54.4 66.6 4.1 76.4 0.8 9.8"></polygon>
                        </g>
                    </g>
                </g>
                <g id="Clipped" transform="translate(0.000000, 2.000000)">
                    <mask id="mask-7" fill="white">
                        <use xlink:href="#path-6"></use>
                    </mask>
                    <g id="SVGID_6_"></g>
                    <g mask="url(#mask-7)">
                        <g transform="translate(-3.000000, -5.000000)">
                            <mask id="mask-9" fill="white">
                                <use xlink:href="#path-8"></use>
                            </mask>
                            <g id="SVGID_8_" stroke="none" fill="none"></g>
                            <polygon id="Shape" stroke="none" fill="url(#linearGradient-10)" fill-rule="evenodd" mask="url(#mask-9)" points="29.5 7.1 21.6 31.3 0.1 25 8 0.9"></polygon>
                        </g>
                    </g>
                </g>
            </g>
            <g id="Group" transform="translate(66.000000, 0.000000)">
                <path d="M0,14.4 C4,13.5 9.2,13.1 14.9,13.1 C21.2,13.1 27.3,13.9 32,17.9 C35.6,20.9 37.1,25.4 37.1,30.1 C37.1,36.1 34,41.9 27.3,44.8 L27.3,45.2 C35.1,47.4 39.3,53.9 39.3,61.3 C39.3,66.9 37.5,71.2 34.3,74.5 C30.3,78.9 23.5,81.3 12.2,81.3 C7.2,81.3 3,81 0,80.6 L0,14.4 L0,14.4 Z M13.1,41.1 L15.9,41.1 C20.6,41.1 24.2,37.1 24.2,31.6 C24.2,26.7 21.9,22.9 16.5,22.9 C15.1,22.9 13.9,23 13.1,23.3 L13.1,41.1 L13.1,41.1 Z M13.1,71 C13.9,71.2 14.8,71.2 16,71.2 C21.3,71.2 25.7,68 25.7,61.1 C25.7,54.4 21.1,50.9 15.9,50.8 L13.1,50.8 L13.1,71 L13.1,71 Z" id="Shape" fill="#272223"></path>
                <path d="M64,80.8 L63.3,76 L63.1,76 C60.4,79.8 56.6,81.6 52.3,81.6 C44.9,81.6 39.4,75.4 39.4,66.7 C39.4,53.9 50.7,48.6 61.8,48.5 L61.8,47.4 C61.8,43.6 59.5,40.8 54.9,40.8 C51,40.8 47.8,41.8 44.9,43.6 L42.5,34.8 C45.2,33.2 50.9,31.1 57.7,31.1 C72.6,31.1 75,41.5 75,51.4 L75,69.6 C75,73.5 75.2,77.5 75.8,80.8 L64,80.8 L64,80.8 Z M62.2,57 C57.8,57.1 51.8,58.5 51.8,65.3 C51.8,70.2 54.5,72 56.5,72 C58.6,72 61,70.7 61.9,67.8 C62.1,67.1 62.2,66.3 62.2,65.5 L62.2,57 L62.2,57 Z" id="Shape" fill="#272223"></path>
                <path d="M123.2,91.8 C116.8,89.4 109.7,86 104.2,83 C102.5,82.2 101.3,81.6 100.7,81.6 C86.3,81.6 78.6,68.6 78.6,46.6 C78.6,28.5 93,13.3 102.1,-7.10542736e-15 C109.2,12.7 123.4,30.5 123.4,45.9 C123.4,62.6 120.7,73 113.8,76.4 L113.8,76.9 C118.5,78.8 123.7,80.3 128.3,81.9 L123.2,91.8 L123.2,91.8 Z M109.8,46.5 C109.8,33.9 107.7,26 101.3,26 C95.4,26 92.4,34.1 92.4,46.8 C92.3,60.5 94.9,70.2 101.3,70.2 C107.3,70.2 109.8,60.5 109.8,46.5 L109.8,46.5 Z" id="Shape" fill="#600C0C"></path>
                <path d="M137.6,61 C137.8,68.6 142.2,71.4 148,71.4 C151.7,71.4 155,70.6 157.3,69.8 L159.1,79.2 C155.7,80.5 150.6,81.4 145.6,81.4 C132.3,81.4 125,72.6 125,57.3 C125,40.9 133.5,31.1 144.6,31.1 C155.1,31.1 161.2,39.4 161.2,54.2 C161.2,57.7 161.1,59.6 160.8,61 L137.6,61 L137.6,61 Z M149.3,51.8 C149.3,45.5 147.7,40.6 143.8,40.6 C139.5,40.6 137.8,46.9 137.7,51.8 L149.3,51.8 L149.3,51.8 Z" id="Shape" fill="#272223"></path>
                <path d="M163.6,46.6 C163.6,41.2 163.3,36.5 163.2,31.9 L174.5,31.9 L175.1,37.5 L175.3,37.5 C177.9,33.6 182.1,31.1 187.2,31.1 C196.5,31.1 200.2,38.5 200.2,49.4 L200.2,80.8 L187.1,80.8 L187.1,50.2 C187.1,46 186.1,42.1 182.3,42.1 C180.1,42.1 178.3,43.6 177.4,46.5 C177,47.5 176.7,49.1 176.7,51 L176.7,80.8 L163.6,80.8 L163.6,46.6 L163.6,46.6 Z" id="Shape" fill="#272223"></path>
                <path d="M239.9,11.6 L239.9,66.3 C239.9,71 240.1,76.3 240.3,80.8 L229,80.8 L228.3,75.3 L228.1,75.3 C226.3,78.7 222.4,81.6 217.9,81.6 C207.5,81.6 202.7,70.1 202.7,56.4 C202.7,39.4 210.1,31.1 218.4,31.1 C222.7,31.1 225.4,33.2 226.6,36 L226.8,36 L226.8,11.6 L239.9,11.6 L239.9,11.6 Z M226.8,50.7 C226.8,49.8 226.8,48.8 226.7,47.8 C226.2,44.8 224.6,42.1 222,42.1 C217.4,42.1 215.7,48.8 215.7,56.7 C215.7,66 218.2,70.9 221.9,70.9 C223.5,70.9 225.4,70 226.4,66.6 C226.7,65.9 226.8,64.8 226.8,63.6 L226.8,50.7 L226.8,50.7 Z" id="Shape" fill="#272223"></path>
            </g>
            <path d="M159.5,77.5 C159.6,77.6 159.7,77.6 159.8,77.7 L159.8,77.9 C157.7,78.8 155.4,79.5 153.4,80.3 L155.6,85 C158.4,83.9 161.6,82.2 164,80.8 C164.7,80.4 165.3,80.1 165.6,80.1 C168.1,80.1 170.2,79.2 171.8,77.4 L159.5,77.4 L159.5,77.5 Z" id="Shape" fill="#600C0C"></path>
            <polygon id="Shape" fill="#000000" points="22 31 22 47.1 37.6 47.1 37.6 53 22 53 22 69.3 16 69.3 16 53 0.4 53 0.4 47.1 16 47.1 16 31"></polygon>
        </g>
        <g id="ionic-sdk-logo-landscape-vector" transform="translate(0.000000, -77.000000)">
            <g id="svg2">
                <g id="g10" transform="translate(127.500000, 128.875374) scale(1, -1) translate(-127.500000, -128.875374) translate(0.000000, 0.875374)">
                    <polygon id="path12" fill="#4E8EF7" points="112.012823 138.743722 113.797947 138.743722 113.797947 104.903388 112.012823 104.903388"></polygon>
                    <g id="g14">
                        <g id="g16-Clipped">
                            <mask id="mask-12" fill="white">
                                <use xlink:href="#path-11"></use>
                            </mask>
                            <g id="path18"></g>
                            <g id="g16" mask="url(#mask-12)">
                                <g transform="translate(4.480234, 83.749628)">
                                    <g id="g22" stroke-width="1" fill="none" transform="translate(116.772922, 20.265566)">
                                        <path d="M17.9209366,33.898659 C8.8031623,33.898659 1.91704241,27.003273 1.91704241,17.8087602 C1.91704241,8.61424747 8.8031623,1.7178644 17.9209366,1.7178644 C27.0387109,1.7178644 33.9253286,8.61424747 33.9253286,17.8087602 C33.9253286,27.003273 27.0387109,33.898659 17.9209366,33.898659 M17.9209366,0.0578271242 C7.78316232,0.0578271242 0.132415809,7.65611185 0.132415809,17.8087602 C0.132415809,27.8966024 7.78316232,35.5596933 17.9209366,35.5596933 C28.0587109,35.5596933 35.7094574,27.8966024 35.7094574,17.8087602 C35.7094574,7.65611185 28.0587109,0.0578271242 17.9209366,0.0578271242" id="path24" fill="#4E8EF7"></path>
                                    </g>
                                    <g id="g26" stroke-width="1" fill="none" transform="translate(159.966113, 21.153561)">
                                        <path d="M29.3704239,0 L29.3704239,17.8785516 C29.3704239,23.7524913 27.7759583,27.5202275 25.2267051,29.8178587 C23.5048018,31.350776 20.7628985,33.0108133 15.6624008,33.0108133 C7.18131754,33.0108133 1.95338209,27.9668922 1.95338209,19.4747796 L1.95338209,0 L0.168257682,0 L0.168257682,33.8403334 L1.95338209,33.8403334 L1.95338209,27.3283013 L2.08081986,27.3283013 C4.18453869,32.1807946 10.1143775,34.6713491 15.4707463,34.6713491 C17.8293407,34.6713491 22.4215807,34.4156136 26.2467051,31.2874653 C29.5620783,28.4778647 31.1555483,23.9444175 31.1555483,17.8785516 L31.1555483,0 L29.3704239,0 Z" id="path28" fill="#4E8EF7"></path>
                                    </g>
                                    <polygon id="path30" fill="#4E8EF7" points="201.003714 54.9940937 202.789834 54.9940937 202.789834 21.1537603 201.003714 21.1537603"></polygon>
                                    <g id="g32" stroke-width="1" fill="none" transform="translate(210.167535, 20.084507)">
                                        <path d="M32.8550504,23.9284652 C30.5596771,30.3771866 24.6935572,34.0796181 18.0628107,34.0796181 C13.2814052,34.0796181 10.156193,32.6748177 6.64916528,29.5471679 C3.90676418,27.056115 1.99519761,22.5874741 1.99519761,17.9897192 C1.99519761,8.41235105 9.39106858,1.89932193 17.998594,1.89932193 C25.6503361,1.89932193 31.1331471,6.68750752 32.7918293,11.7314286 L34.7676126,11.7314286 C32.4090182,4.83654103 26.0326494,0.238786142 17.998594,0.238786142 C8.17991195,0.238786142 0.209077594,7.38940916 0.209077594,17.9254115 C0.209077594,27.9509399 7.73338194,35.7406524 17.998594,35.7406524 C24.8852117,35.7406524 32.1531471,31.9086084 34.8318293,23.9284652 L32.8550504,23.9284652 Z" id="path34" fill="#4E8EF7"></path>
                                    </g>
                                    <g id="g36" stroke-width="1" fill="none" transform="translate(106.370068, 63.490394)">
                                        <path d="M3.98243035,1.99403877 C3.98243035,0.928225046 3.11973638,0.0643077502 2.05543187,0.0643077502 C0.990629551,0.0643077502 0.127935575,0.928225046 0.127935575,1.99403877 C0.127935575,3.05985249 0.990629551,3.92376978 2.05543187,3.92376978 C3.11973638,3.92376978 3.98243035,3.05985249 3.98243035,1.99403877" id="path38" fill="#4E8EF7"></path>
                                    </g>
                                    <g id="g40" stroke-width="1" fill="none" transform="translate(199.841989, 63.490394)">
                                        <path d="M3.98243035,1.99403877 C3.98243035,0.928225046 3.11923858,0.0643077502 2.05543187,0.0643077502 C0.989633943,0.0643077502 0.127437771,0.928225046 0.127437771,1.99403877 C0.127437771,3.05985249 0.989633943,3.92376978 2.05543187,3.92376978 C3.11923858,3.92376978 3.98243035,3.05985249 3.98243035,1.99403877" id="path42" fill="#4E8EF7"></path>
                                    </g>
                                    <g id="g44" stroke-width="1" fill="none" transform="translate(0.429505, 0.234150)">
                                        <path d="M43.8067339,1.99403877 C20.8783889,1.99403877 2.22518296,20.6741939 2.22518296,43.6345533 C2.22518296,66.5954112 20.8783889,85.2755664 43.8067339,85.2755664 C53.1301012,85.2755664 61.7460892,82.1863018 68.6884609,76.9778726 C68.0373336,76.0102653 67.6580071,74.8452481 67.6580071,73.5900007 C67.6580071,70.237523 70.3720334,67.5201467 73.7202617,67.5201467 C74.972736,67.5201467 76.1356057,67.9005096 77.1023407,68.5515632 C82.3038925,61.5988486 85.3882848,52.9711413 85.3882848,43.6345533 C85.3882848,20.6741939 66.7350789,1.99403877 43.8067339,1.99403877 M78.3931459,69.723061 C79.2608179,70.7734209 79.7830141,72.1208926 79.7830141,73.5900007 C79.7830141,76.9434754 77.0679922,79.6613502 73.7202617,79.6613502 C72.2532339,79.6613502 70.9076703,79.1384136 69.8582999,78.2700097 C62.6028096,83.7566074 53.5791202,87.0168607 43.8067339,87.0168607 C19.9196188,87.0168607 0.486354307,67.5560394 0.486354307,43.6345533 C0.486354307,19.7135658 19.9196188,0.252744414 43.8067339,0.252744414 C67.693849,0.252744414 87.1271135,19.7135658 87.1271135,43.6345533 C87.1271135,53.4202986 83.8719745,62.4567838 78.3931459,69.723061" id="path46" fill="#4E8EF7"></path>
                                    </g>
                                    <g id="g48" stroke-width="1" fill="none" transform="translate(26.316049, 26.128438)">
                                        <path d="M17.9209366,35.3941881 C8.18439218,35.3941881 0.291713023,27.4908155 0.291713023,17.7404644 C0.291713023,7.99011334 8.18439218,0.0872391961 17.9209366,0.0872391961 C27.6569832,0.0872391961 35.5496624,7.99011334 35.5496624,17.7404644 C35.5496624,27.4908155 27.6569832,35.3941881 17.9209366,35.3941881" id="path50" fill="#4E8EF7"></path>
                                    </g>
                                </g>
                            </g>
                        </g>
                    </g>
                </g>
            </g>
        </g>
    </g>
</svg>
